<?xml version="1.0" encoding="UTF-8"?>
<svg id="Logo" xmlns="http://www.w3.org/2000/svg" viewBox="0 0 455.54 70">
  <defs>
    <style>
      .cls-1 {
        fill: #2d2d2d;
      }

      .cls-2 {
        fill: #00b2a9;
      }
    </style>
  </defs>
  <path class="cls-2" d="m314.39,0h-62.46c-20.37,0-30.55,5.9-30.55,17.7v.24c0,9.24,3.63,14.12,10.89,14.63-7.71.43-11.56,4.56-11.56,12.39v7.1c0,11.96,10.18,17.94,30.55,17.94h62.46c20.37,0,30.55-5.98,30.55-17.94v-7.1c0-8.03-3.9-12.18-11.7-12.46,7.35-.31,11.02-5.26,11.02-14.87v-.24c0-11.8-10.18-17.7-30.55-17.7m-1.7,60.38c0,2.26-1.79,3.4-5.36,3.4h-48.17c-3.58,0-5.36-1.13-5.36-3.4v-6.19c0-2.26,1.79-3.4,5.36-3.4h48.17c3.58,0,5.36,1.13,5.36,3.4v6.19Zm0-33.64c0,2.28-1.79,3.42-5.36,3.42h-48.17c-3.58,0-5.36-1.14-5.36-3.42v-5.13c0-2.28,1.79-3.42,5.36-3.42h48.17c3.58,0,5.36,1.14,5.36,3.42v5.13Z"/>
  <polygon class="cls-2" points="400.8 0 359.97 0 359.97 18.19 375.19 18.19 375.19 70 404.4 70 404.4 18.19 419.61 18.19 419.61 0 400.8 0"/>
  <path class="cls-2" d="m102.45,0h-62.46C19.62,0,9.44,5.9,9.44,17.7v34.61c0,11.8,10.18,17.7,30.55,17.7h62.46c20.37,0,30.55-5.9,30.55-17.7v-14.51h-63.96v12.1c0,2.28-1.79,3.42-5.36,3.42h-19.54c-3.58,0-5.36-1.14-5.36-3.42v-29.8c0-2.28,1.79-3.42,5.36-3.42h19.54c3.58,0,5.36,1.14,5.36,3.42v11.87h63.96v-14.28c0-11.8-10.18-17.7-30.55-17.7"/>
  <polygon class="cls-2" points="206.04 14.6 206.04 0 150.06 0 150.06 70 206.04 70 206.04 55.4 179.27 55.4 179.27 42.95 206.04 42.95 206.04 28.35 179.27 28.35 179.27 14.6 206.04 14.6"/>
  <polygon class="cls-2" points="445.99 0 426.5 24.35 426.5 70 455.54 70 455.54 0 445.99 0"/>
  <polygon class="cls-2" points="429.47 0 426.5 0 426.5 3.65 429.47 0"/>
  <path class="cls-1" d="m0,0v70h8.44V0H0Z"/>
</svg>
