<svg version="1.1" id="Layer_1" xmlns="http://www.w3.org/2000/svg" xmlns:xlink="http://www.w3.org/1999/xlink" x="0px" y="0px"
     width="231.542px" height="71.103px" viewBox="0 0 231.542 71.103" enable-background="new 0 0 231.542 71.103"
     xml:space="preserve">
<style>
    path, rect {
        fill: #FFFFFF;
    }
</style>
<g>
<defs>
<rect id="SVGID_1_" width="231.542" height="71.103" />
					</defs>
<clipPath id="SVGID_2_">
<use xlink:href="#SVGID_1_" overflow="visible" />
					</clipPath>
<path clip-path="url(#SVGID_2_)" fill-rule="evenodd" clip-rule="evenodd" d="M40.801,0.79c0.863,0.96,1.151,2.206,1.631,3.358
						c-1.535,2.014-4.029,2.973-6.14,4.22c-0.671,0.192-0.959,0.672-1.63,0.959c-0.96-0.383-2.59-0.863-2.59-2.302
						C31.4,5.97,30.729,5.011,30.729,3.86c1.727-2.015,4.604-1.535,6.427-3.454c0.959,0,1.63-0.767,2.59-0.191
						C40.034,0.501,40.321,0.79,40.801,0.79" />
<path clip-path="url(#SVGID_2_)" fill-rule="evenodd" clip-rule="evenodd" d="M34.086,12.972c1.727-0.288,3.837-1.055,5.18,0.48
						c0.575,0.287,0.384,0.863,0.575,1.247c-0.096,0.287-0.287,1.055-0.959,1.151c-0.671-0.096-1.439,0.575-2.206,0.863
						c0.384,0.192,1.151,0.576,1.343,1.151c0.479,0.767,0,1.727,0,2.398c-0.48,1.535-2.782,1.343-2.59,3.358
						c-2.494,0.863-4.029,3.357-6.715,3.645c-1.535,1.343-3.453,2.398-4.7,4.125c-0.576-4.701,2.877-9.209,6.81-11.319
						c-0.287-1.056-1.918-1.535-1.918-2.782c-0.672-0.768-1.151-1.919-1.151-2.878c1.631-1.247,3.261-2.974,5.468-2.302
						C33.318,12.492,33.895,12.492,34.086,12.972" />
<path clip-path="url(#SVGID_2_)" fill-rule="evenodd" clip-rule="evenodd" d="M49.242,26.114c0-0.192-0.192-0.384-0.384-0.48
						c-0.479,0.096-0.863-0.287-1.247,0.096c-0.191-0.863-1.726-0.191-2.014-1.055C47.036,24.291,48.475,25.155,49.242,26.114" />
<polygon clip-path="url(#SVGID_2_)" fill-rule="evenodd" clip-rule="evenodd" points="47.228,26.402 47.132,25.73 47.42,26.018
						" />
<path clip-path="url(#SVGID_2_)" fill-rule="evenodd" clip-rule="evenodd" d="M49.818,26.594c-0.096,0.672-0.576,0.959-1.055,1.151
						l0.479-0.959c0,0.096,0.096,0.192,0.096,0.192C49.626,26.978,49.722,26.594,49.818,26.594" />
<path clip-path="url(#SVGID_2_)" fill-rule="evenodd" clip-rule="evenodd" d="M47.995,26.689c-0.096,0.192-0.384,0.384-0.288,0.672
						c0.288-0.192,0.768,0.287,0.768,0.575c0,0.096-0.096,0.192-0.192,0.288c0-0.288-0.288-0.48-0.576-0.384l-0.096,0.096
						c0,0.576,0.096-0.288-0.096-0.288c-1.343,0.096-0.383,1.439-1.63,1.535c0-0.384,0.287-0.479,0.575-0.671
						c-0.383-0.864-0.863,0.192-1.343,0l0.48-0.48l-0.096-0.096c0.096,0,0.959,0.192,1.055-0.479c0.288,0.671,0.767-0.096,1.055-0.288
						C47.611,26.881,47.611,26.498,47.995,26.689" />
<path clip-path="url(#SVGID_2_)" fill-rule="evenodd" clip-rule="evenodd" d="M44.254,28.992c-0.192-0.192-0.192-0.384,0.096-0.575
						C44.254,28.608,44.158,28.8,44.254,28.992" />
<path clip-path="url(#SVGID_2_)" fill-rule="evenodd" clip-rule="evenodd" d="M34.854,32.253c-0.672,0-1.247,0-1.631,0.48
						l-0.192-0.096c0.096-0.576,1.247-0.288,1.823-0.672V32.253z" />
<path clip-path="url(#SVGID_2_)" fill-rule="evenodd" clip-rule="evenodd" d="M31.304,35.419c-0.096,0.288-0.384,0.288-0.576,0.288
						C30.824,35.515,31.112,35.419,31.304,35.419" />
<path clip-path="url(#SVGID_2_)" fill-rule="evenodd" clip-rule="evenodd" d="M24.877,36.378c-0.288,0-0.672,0.096-0.863-0.097
						c0.191-0.288,0.671,0,0.863-0.288V36.378z" />
<path clip-path="url(#SVGID_2_)" fill-rule="evenodd" clip-rule="evenodd" d="M22.671,23.716c-0.768,2.686-3.166,1.918-5.18,3.069
						c0.096,0.192-0.671,0.288-1.247,0.384l-0.576,0.288c-2.11,0.288-3.453,1.726-5.371,2.59c0.096,0.863-1.056,0.383-1.535,0.863
						c-0.192,0.672-1.439,0.384-1.151,1.247c-0.864,0.672-2.11,1.247-2.494,2.206c1.055,0.96,2.494,0.768,3.645,1.056
						c3.837,0.383,7.194-0.096,10.743-0.096c1.056-0.192,2.015-0.576,3.166-0.576v0.096c0.767,0.288,1.343-0.671,2.206-0.288
						c0.576-0.671,1.727-0.096,2.303-0.863c1.15-0.384,2.781-0.096,3.645-0.672v0.192c-0.384-0.096-0.288,0.288-0.48,0.48
						c0.192,0.192,0.575,0.096,0.863,0.096c1.247-1.343,2.302,0.384,3.454-1.151c0.479-0.672,1.247-0.96,2.014-1.152l0.288,0.384
						c0.383-1.151,1.631-0.767,2.302-1.343c-0.48,0.096-0.575,0.864-1.247,0.576c0.48,0.863-0.767,0.959-1.055,1.439
						c-0.288,0.096-0.959,0-0.864-0.48c-0.287,0.288-0.287,1.343-0.959,0.959c-0.767,0.192-1.822,0.48-2.686,0.96
						c-0.959,0.095-2.206,0.671-3.261,0.383c-0.864,0.48-1.727,0.384-2.686,0.768c-1.247,0.288-3.07,0.192-4.125,0.863
						c-0.383,0-0.192,0.576-0.575,0.576c0.383,0,0.287,1.056,0.863,0.575c-0.288,0-0.48,0.384-0.576,0
						c-0.575,0.097-1.055,0.769-1.534,0.192c-0.768,0.384-1.823,0.191-2.686,0.288v-0.288c0.575,0.479,0.383-0.48,0.863-0.575v-0.384
						c-1.439,0.575-3.07,0.384-4.7,1.055c0.479,0.959-0.864,0.192-1.151,0.576c0-0.192,0.191-0.192,0.287-0.288
						c-2.014-0.672-2.973,0.671-5.18,0.192l-0.287,0.479c-0.96-0.575-2.206,0.576-3.166-0.096c-1.055-0.192-2.494-0.479-2.878-1.534
						c-0.383,0.095-0.479-0.192-0.575-0.479c0.192-1.056-1.727-1.439-0.864-2.59c-0.575-0.672,0.192-1.439,0.288-2.11
						c0.096-0.097,0.096-0.288,0.192-0.48l0.192,0.288c0.48-0.384,0.576-0.96,0.767-1.439l1.439-1.535c-0.096,0.096,0,0.192,0.096,0.192
						c0.192,0,0.288-0.192,0.48-0.288c-0.192-0.575,0.192-0.672,0.575-0.959c0.288-0.096,0.672,0.192,0.768-0.192
						c-0.288-0.767,0.959,0,0.959-0.863c1.055,0.096,1.247-1.151,2.302-0.96c1.439-1.438,3.454-1.534,5.084-2.686
						C16.148,21.797,20.944,19.687,22.671,23.716 M19.697,36.378h-0.383l0.383,0.288V36.378z M18.738,37.337h0.384
						c0.192-0.096,0.192-0.288,0.383-0.48C19.122,36.857,18.834,37.049,18.738,37.337" />
<path clip-path="url(#SVGID_2_)" fill-rule="evenodd" clip-rule="evenodd" d="M12.695,37.913c-0.096,0.192-0.288,0.097-0.384,0.097
						v-0.192C12.407,37.817,12.599,37.721,12.695,37.913" />
<path clip-path="url(#SVGID_2_)" fill-rule="evenodd" clip-rule="evenodd" d="M43.391,28.992c-0.192,0.192-0.48,0.575-0.768,0.192
						h-0.095C42.719,29.088,43.007,28.896,43.391,28.992" />
<path clip-path="url(#SVGID_2_)" fill-rule="evenodd" clip-rule="evenodd" d="M25.261,44.532c0.384,2.302-0.768,4.316-2.015,6.139
						l-0.575,0.097l0.096-0.097l-0.096-0.096c-1.055,1.343-2.302,2.398-2.59,4.125c-0.192,0.096-0.384,0.096-0.48,0.192
						c-0.287-0.959-0.959-2.206-0.383-3.165c-0.192-2.879,1.151-4.989,2.494-7.388c0.863-0.479,1.726-2.014,2.686-1.247L25.261,44.532z" />
<path clip-path="url(#SVGID_2_)" fill-rule="evenodd" clip-rule="evenodd" d="M19.697,63.237c0.384,0.768,0.288,1.535,0.096,2.303
						c-0.576,0.096-1.151,0-1.631-0.288l-0.096,0.096c-0.671-0.383-1.247-0.863-1.343-1.63c-0.191-1.055,1.151-0.864,1.343-1.728
						C18.642,62.182,19.217,62.757,19.697,63.237" />
<path clip-path="url(#SVGID_2_)" fill-rule="evenodd" clip-rule="evenodd" d="M55.861,52.11v4.508
						c-1.151,0.576-5.66,0.96-6.811,0.96c-6.235,0-8.249-3.262-8.249-9.113c0-6.139,2.59-9.112,8.825-9.112
						c2.302,0,3.933,0.384,6.235,1.055v4.029h-1.439v-0.671c-0.384-2.878-1.631-3.454-4.796-3.454c-4.796,0-6.139,3.454-6.139,7.674
						c0,4.604,0.767,8.729,6.235,8.729c3.933,0,4.316-1.056,4.7-4.604H55.861z" />
<path clip-path="url(#SVGID_2_)" fill-rule="evenodd" clip-rule="evenodd" d="M62.672,48.657c0-6.427,2.11-9.113,8.729-9.113
						c6.619,0,8.73,2.687,8.73,9.113s-1.727,9.113-8.73,9.113C64.782,57.77,62.672,55.083,62.672,48.657 M65.262,48.657
						c0,4.316,1.055,8.249,6.139,8.249c5.18,0,6.14-3.933,6.14-8.249c0-4.317-0.96-8.154-6.14-8.154
						C66.317,40.502,65.262,44.339,65.262,48.657" />
<path clip-path="url(#SVGID_2_)" fill-rule="evenodd" clip-rule="evenodd" d="M102.385,42.517h-0.096L96.15,57.29
						c-0.192,0.288-0.384,0.288-0.576,0.096l-6.235-14.58v11.99c0,1.631,0.384,1.727,2.111,1.727v0.863h-2.686h-2.686v-0.863
						c1.726,0,2.11-0.096,2.11-1.727v-12.47c0-1.728-0.479-1.728-2.11-1.728v-0.863h2.014h2.015l6.331,14.197l6.043-14.197h2.11h2.015
						v0.863c-1.631,0-2.111,0-2.111,1.728v12.47c0,1.631,0.384,1.727,2.111,1.727v0.863h-3.166h-3.261v-0.863
						c1.822,0,2.206-0.096,2.206-1.727V42.517z" />
<path clip-path="url(#SVGID_2_)" fill-rule="evenodd" clip-rule="evenodd" d="M118.596,54.795c0,1.343-0.096,1.728,2.398,1.728
						v0.862c-1.151,0-2.398,0-3.549-0.096c-1.247,0.096-2.398,0.096-3.645,0.096v-0.862c2.494,0,2.494-0.385,2.494-1.728v-12.47
						c0-1.439,0-1.823-2.494-1.823v-0.863c1.247,0.097,2.398,0.097,3.645,0.097c1.727,0,3.453,0,5.275-0.097
						c3.262,0,4.988,0.959,4.988,4.51c0,4.796-2.686,5.37-6.811,5.37h-2.303V54.795z M118.596,48.56h1.247
						c3.166,0,5.372-0.096,5.372-3.933c0-3.741-1.247-4.029-4.125-4.029h-2.494V48.56z" />
<path clip-path="url(#SVGID_2_)" fill-rule="evenodd" clip-rule="evenodd" d="M142.099,39.736l5.371,14.005
						c0.287,0.767,0.959,2.974,2.974,2.782v0.862h-3.453h-3.549v-0.862c0,0,2.206,0,2.206-1.056c0-0.479-0.192-0.96-0.384-1.343
						l-1.631-4.317h-6.14l-1.63,4.413c-0.096,0.384-0.192,0.768-0.192,1.151c0,1.151,1.247,1.151,2.11,1.151v0.862h-2.973h-3.07v-0.862
						c0.863-0.097,1.343,0,1.918-0.769c0.384-0.383,1.055-2.206,1.343-2.686l5.468-13.333H142.099z M143.153,48.56l-2.59-6.522
						l-2.782,6.811h5.468L143.153,48.56z" />
<path clip-path="url(#SVGID_2_)" fill-rule="evenodd" clip-rule="evenodd" d="M163.105,47.505c2.397,0.863,4.604,2.014,4.604,4.892
						c0,4.222-3.453,5.276-7.003,5.276c-1.821,0-3.74-0.288-5.468-1.055v-4.604h1.631c0.288,2.493-0.384,4.796,4.125,4.796
						c2.303,0,4.412-1.056,4.412-3.55c0-2.877-2.782-3.453-4.988-4.22c-2.397-0.863-4.508-1.728-4.508-4.7
						c0-3.357,2.782-4.893,5.852-4.893c1.727,0,3.357,0.288,5.18,0.959v4.221h-1.439c-0.191-2.014,0.288-4.221-3.645-4.221
						c-2.11,0-3.741,0.863-3.741,3.166c0,1.535,0.769,2.302,2.11,2.878L163.105,47.505z" />
<path clip-path="url(#SVGID_2_)" fill-rule="evenodd" clip-rule="evenodd" d="M182.482,47.217c2.398,0.863,4.604,1.92,4.604,4.893
						c0,4.221-3.453,5.275-7.002,5.275c-1.823,0-3.741-0.287-5.469-1.055v-4.604h1.631c0.288,2.493-0.384,4.796,4.125,4.796
						c2.303,0,4.412-1.057,4.412-3.55c0-2.877-2.781-3.453-4.987-4.221c-2.398-0.863-4.51-1.727-4.51-4.701
						c0-3.452,2.782-4.892,5.853-4.892c1.727,0,3.356,0.288,5.18,0.959v4.221h-1.438c-0.192-2.014,0.288-4.221-3.646-4.221
						c-2.11,0-3.741,0.864-3.741,3.166c0,1.439,0.768,2.302,2.11,2.878L182.482,47.217z" />
<path clip-path="url(#SVGID_2_)" fill-rule="evenodd" clip-rule="evenodd" d="M86.27,69.281c0-0.575,0-0.672-1.151-0.672v-0.384
						c0.671,0.097,1.151,0.097,1.631,0.097c0.479,0,0.959,0,1.247-0.097v0.384c-0.768,0-0.768,0.191-0.768,0.672v0.959v0.384
						c-0.863,0.288-1.822,0.479-2.686,0.479c-2.494,0-3.357-1.247-3.357-3.55c0-2.397,1.055-3.645,3.549-3.645
						c0.959,0,1.631,0.096,2.494,0.384v1.631h-0.575c-0.096-1.439-0.48-1.727-1.919-1.727c-2.014,0-2.494,1.631-2.494,3.356
						c0,1.919,0.48,3.166,2.59,3.166c0.384,0,0.959-0.096,1.439-0.384V69.281z" />
<path clip-path="url(#SVGID_2_)" fill-rule="evenodd" clip-rule="evenodd" d="M98.356,69.952c0,0.576-0.096,0.768,0.959,0.768
						v0.288h-1.439h-1.438v-0.288c0.959,0,0.959-0.191,0.959-0.768V65.06c0-0.576,0-0.672-0.959-0.672v-0.383h1.438h1.919
						c1.247,0,2.11,0.096,2.11,1.534c0,1.246-0.671,1.727-1.726,1.822c0.287,0.48,1.439,2.302,1.726,2.687
						c0.288,0.287,0.48,0.574,1.056,0.671v0.288h-0.768h-0.767c-0.672-1.056-2.111-3.357-2.398-3.453
						c-0.192-0.097-0.48-0.097-0.672-0.097V69.952z M98.356,67.17h0.48c1.055,0,2.11,0,2.11-1.439c0-1.055-0.48-1.343-1.535-1.343
						h-1.055V67.17z" />
<path clip-path="url(#SVGID_2_)" fill-rule="evenodd" clip-rule="evenodd" d="M111.498,67.458c0-2.493,0.863-3.549,3.453-3.549
						c2.686,0,3.455,1.056,3.455,3.549c0,2.591-0.673,3.646-3.455,3.646C112.361,71.103,111.498,70.048,111.498,67.458 M112.553,67.458
						c0,1.728,0.384,3.262,2.398,3.262c2.015,0,2.398-1.534,2.398-3.262c0-1.631-0.383-3.262-2.398-3.262
						C112.937,64.196,112.553,65.827,112.553,67.458" />
<path clip-path="url(#SVGID_2_)" fill-rule="evenodd" clip-rule="evenodd" d="M129.148,68.705c0,1.344,0.574,2.015,1.919,2.015
						c1.534,0,2.206-0.575,2.206-2.11V65.06c0-0.672,0-0.672-1.056-0.672v-0.383h1.247h1.247v0.383c-0.96,0-0.96,0.096-0.96,0.672v3.453
						c0,2.015-1.055,2.59-2.973,2.59c-1.631,0-2.59-0.671-2.59-2.302V65.06c0-0.576,0.096-0.672-0.864-0.672v-0.383h1.343h1.439v0.383
						c-0.959,0-0.959,0.096-0.959,0.672V68.705z" />
<path clip-path="url(#SVGID_2_)" fill-rule="evenodd" clip-rule="evenodd" d="M145.071,69.952c0,0.576,0,0.767,0.959,0.767v0.288
						h-1.438h-1.438v-0.288c0.959,0,0.959-0.19,0.959-0.767V65.06c0-0.576,0-0.671-0.959-0.671v-0.385h1.438h2.11
						c1.247,0,2.015,0.385,2.015,1.727c0,1.919-1.151,2.207-2.782,2.207h-0.863V69.952z M145.071,67.554h0.48
						c1.247,0,2.11-0.097,2.11-1.632c0-1.438-0.48-1.533-1.632-1.533h-0.959V67.554z" />
<path clip-path="url(#SVGID_2_)" fill-rule="evenodd" clip-rule="evenodd" d="M40.129,31.678c-0.192,0-0.575,0.096-0.863-0.096
						c0.288-0.288,0.671,0,0.863-0.288V31.678z" />
<path clip-path="url(#SVGID_2_)" fill-rule="evenodd" clip-rule="evenodd" d="M41.856,29.951c-0.575,0-1.151,0-1.631,0.575
						l-0.096-0.191c0.096-0.576,1.247-0.288,1.727-0.672V29.951z" />
<path clip-path="url(#SVGID_2_)" fill-rule="evenodd" clip-rule="evenodd" d="M44.062,29.951c-0.192-0.096-0.575,0.096-0.767-0.192
						c0.192-0.192,0.575,0.096,0.767-0.192V29.951z" />
<polygon clip-path="url(#SVGID_2_)" fill-rule="evenodd" clip-rule="evenodd" points="42.527,30.526 42.432,29.855 42.72,30.046
						" />
<rect x="195.416" y="35.706" clip-path="url(#SVGID_2_)" width="0.5" height="29.869" />
<path clip-path="url(#SVGID_2_)" d="M205.244,39.497c0-0.181,0.154-0.337,0.335-0.337h0.542c0.182,0,0.337,0.156,0.337,0.337V50.53
						c0,3.332,2.094,5.787,5.529,5.787c3.463,0,5.581-2.431,5.581-5.763V39.497c0-0.206,0.104-0.337,0.362-0.337h0.516
						c0.181,0,0.336,0.156,0.336,0.337v11.161c0,3.953-2.686,6.848-6.795,6.848c-4.082,0-6.743-2.895-6.743-6.848V39.497z" />
<path clip-path="url(#SVGID_2_)" d="M219.754,39.547c0-0.231,0.154-0.388,0.388-0.388h0.465c0.234,0,0.387,0.156,0.387,0.388v7.983
						l8.786-8.189c0.206-0.182,0.284-0.182,0.519-0.182h0.721c0.286,0,0.312,0.284,0.156,0.44l-8.992,8.346l9.275,8.861
						c0.156,0.131,0.104,0.44-0.231,0.44H230.4c-0.234,0-0.362-0.054-0.571-0.26l-8.836-8.577v8.499c0,0.26-0.181,0.338-0.387,0.338
						h-0.517c-0.207,0-0.336-0.129-0.336-0.338V39.547z" />
				</g>
				</svg>