<svg xmlns="http://www.w3.org/2000/svg" xmlns:xlink="http://www.w3.org/1999/xlink" width="298.763" height="75.26" viewBox="0 0 298.763 75.26">
  <defs>
    <clipPath id="clip-path">
      <path id="Path_2" data-name="Path 2" d="M0,29.4H298.763v-75.26H0Z" transform="translate(0 45.862)" fill="#fff"/>
    </clipPath>
  </defs>
  <g id="Group_13" data-name="Group 13" transform="translate(-10.499 78.869)">
    <g id="Group_2" data-name="Group 2" transform="translate(10.499 -78.869)" clip-path="url(#clip-path)">
      <g id="Group_1" data-name="Group 1" transform="translate(-0.001 0)">
        <path id="Path_1" data-name="Path 1" d="M116.7,8.211H96.038V-7.072L76.021,8.211l7.1,6.781V45.663c0,12.268,6.351,16.572,13.776,16.572,8.717,0,14.528-4.413,19.694-13.13L115.3,47.385a12.056,12.056,0,0,1-10.547,6.242c-6.349,0-8.717-2.8-8.717-13.13V14.021h18.3Zm-50.548,0H54.314c-10.977,0-17.972,7-17.972,14.959,0,21.308,28.521,15.066,28.521,27.766,0,4.843-3.659,7-8.072,7-8.825,0-17.327-8.072-20.125-17.327H35.8l.97,18.942c4.089,1.721,11.407,2.475,16.787,2.475,8.5,0,21.1-4.843,21.1-17.327,0-19.694-29.489-14.851-29.489-25.936,0-4.2,2.583-7,7.1-7.1,6.889-.108,13.346,5.058,17.221,12.053l.645.107V8.212ZM30.231,30.487h.108l-.108-.215C30.123,15.744,22.267,7.134,9.461,7.134c-17.542,0-26.153,15.928-26.153,29.81,0,12.915,7.964,25.506,22.063,25.506,12.806,0,20.447-9.9,24.321-19.694l-1.615-.647c-1.613,4.521-8.07,8.18-15.389,8.18-8.394,0-15.819-5.812-17-19.7H30.231Zm-13.883-3.12H-4.531v-.753c0-6.457,3.336-16.251,11.515-16.251,4.736,0,9.364,4.519,9.364,16.034Zm-36.891-1.723h.753V7.027c-10.008,1.4-15.713,5.7-20.017,9.362V7.134l-20.234,7.211,7.319,8.287v29.7l-7.964,8.609h30.134l-9.255-8.609V21.125a8.5,8.5,0,0,1,7.317-4.3c4.306,0,9.04,3.12,11.947,8.824M-84.953,61.591l20.234-.647-7.319-8.025V8.227H-92.917l7.964,8.86V49.644A13.826,13.826,0,0,1-95.176,54.7c-8.287,0-9.47-5.273-9.47-13.56V8.227h-20.987l8.072,8.975V44.8c0,10.117,5.166,17.219,16.143,17.219,7.641,0,12.591-3.659,16.466-9.04Zm-97.108-.647h51.9V40.112l-17.083,16.957h-14.475v-66h14.641l16.917,16.994v-20.87h-51.9l6.461,11.2V49.531Z" transform="translate(182.061 12.809)" fill="#fff"/>
      </g>
    </g>
    <g id="Group_3" data-name="Group 3" transform="translate(31.777 -53.424)">
      <path id="Path_3" data-name="Path 3" d="M0,4.847,12.408,17.254,24.815,4.847,12.408-7.561Z" transform="translate(0 7.561)" fill="#fff"/>
    </g>
  </g>
</svg>
