<svg width="182" height="181" viewBox="0 0 182 181" fill="none" xmlns="http://www.w3.org/2000/svg">
    <path d="M182 90.4542C182 140.411 141.258 180.908 91 180.908C40.7421 180.908 0 140.411 0 90.4542C0 40.4977 40.7421 0 91 0C141.258 0 182 40.4977 182 90.4542Z" fill="white"/>
    <path d="M139.112 90.6167C142.089 89.5747 144.683 87.4014 147.674 86.2265C151.086 84.8834 154.618 84.3787 154.976 89.127C155.274 93.0885 152.721 91.1675 151.009 91.1539C147.737 91.1295 141.736 95.8235 139.257 97.9453C139.199 111.013 134.53 124.929 123.781 133.053C117.403 137.875 106.126 141.437 98.6494 137.421C88.4087 131.922 101.974 118.705 106.851 114.079C114.544 106.78 123.237 100.507 131.999 94.5401C132.827 93.6393 132.685 87.111 132.278 86.8153C131.766 86.7312 131.49 87.168 131.181 87.4855C127.294 91.4686 119.812 102.694 113.163 98.0566C107.16 93.8699 111.495 84.9268 114.24 80.032L105.552 81.565L105.134 81.9992C103.209 88.1394 100.342 101.087 92.657 102.428C83.0723 104.099 85.0625 88.5844 85.1254 83.0139C79.0564 87.4611 70.5927 98.1136 62.2273 96.784C60.4422 96.5018 57.5361 94.6324 57.0933 92.79L56.4809 92.8334C51.0134 96.4313 41.847 105.752 35.0837 105.811C27.5767 105.887 27.8173 97.7093 28.1071 92.3695C28.9928 76.0244 34.3291 58.86 36.128 42.5231L36.4943 41.7579C37.4429 41.568 41.2128 44.1755 42.0657 44.8945C46.273 48.4517 45.2205 51.6181 44.4359 56.4804C42.5414 68.2291 38.9711 79.937 36.9536 91.6531C36.7786 92.6734 35.7452 97.0364 36.7704 97.3728C38.777 98.0294 48.3971 92.0846 50.5131 90.7306C51.8089 89.9031 55.9697 87.4448 56.418 86.2808C57.0386 84.6718 57.2928 82.2813 57.9107 80.4363C58.944 77.3675 61.7434 71.3874 64.0562 69.1706C66.5767 66.7557 68.042 68.7826 70.2509 69.8245C74.3188 71.7455 84.3162 75.0965 76.976 80.3657C72.602 83.5078 67.0661 85.8005 62.6838 88.9887C62.4733 92.0791 66.328 90.0333 67.8397 89.203C72.3805 86.7095 83.6191 76.7136 87.8592 76.4911C88.8269 76.4396 91.4787 77.0284 92.4355 77.3784C94.4476 78.111 94.68 78.8815 94.5132 80.9491C94.2043 84.7776 91.8204 89.9465 91.8013 93.7533C91.7986 94.3909 91.8669 94.8549 92.4929 95.1696C93.3896 94.8711 93.8899 94.0164 94.3218 93.2404C96.5471 89.2573 97.3919 83.6923 99.4203 79.5789C99.6199 79.1719 99.8905 78.4284 100.161 78.1435C101.427 76.8113 106.375 77.4788 108.319 77.2861C111.594 76.9605 115.101 75.0015 118.223 74.6352C126.457 73.672 120.681 80.1812 119.103 83.6488C118.125 85.8005 116.517 89.4716 117.026 91.7752C117.745 95.0367 122.206 89.9709 123.119 88.9914C125.26 86.6878 130.539 79.0118 132.89 78.0703C135.244 77.126 137.652 78.9412 138.535 81.0115C138.658 81.3018 139.109 82.7073 139.109 82.8837V90.6167H139.112ZM65.8468 81.6627C66.0737 81.8798 68.4138 80.4037 68.8294 80.1487C69.8381 79.5355 73.4549 77.3024 74.0536 76.6349C74.7015 75.9077 73.3674 74.1712 72.5473 74.1631C71.3964 74.1522 68.6818 77.4652 67.9272 78.4339C67.6429 78.8002 65.6172 81.4375 65.8496 81.66L65.8468 81.6627ZM132.275 101.744L119.183 110.318C113.674 114.893 107.154 119.614 103.237 125.694C101.706 128.071 99.6527 131.645 103.567 132.814C112.264 135.411 123.581 124.701 127.575 117.834C130.309 113.132 132.245 107.206 132.275 101.744Z" fill="#1A1A1A"/>
</svg>
