<svg width="246" height="12" viewBox="0 0 246 12" fill="none" xmlns="http://www.w3.org/2000/svg">
<g clip-path="url(#clip0_1343_3136)">
<path d="M113.115 2.13674H117.551V11.8242H119.457V2.13674H123.875V0.229904H113.115V2.13674Z" fill="#303031"/>
<path d="M33.0898 2.12322H37.5207V11.8377H39.4319V2.12322H43.8492V0.216385H33.0898V2.12322Z" fill="#303031"/>
<path d="M67.0722 6.59053C67.0722 8.65063 65.5667 10.0706 63.5744 10.0706C61.5821 10.0706 60.0766 8.65063 60.0766 6.59053V0.225388H58.1699V6.59053C58.1699 9.719 60.5138 11.9775 63.5744 11.9775C66.635 11.9775 68.9788 9.719 68.9788 6.59053V0.225388H67.0722V6.59053Z" fill="#303031"/>
<path d="M81.1784 4.21488C81.1784 1.92488 79.4881 0.216385 77.1442 0.216385H72.3438V11.8242H74.2504V8.23141H77.2614L79.8262 11.8422H82.1836L79.2177 7.713C80.4211 7.0278 81.1739 5.7701 81.1739 4.21488H81.1784ZM78.0818 6.12172L76.9594 4.5665L75.3863 5.62134L75.8866 6.32457H74.2459V2.12322H77.1397C78.3793 2.12322 79.2627 2.99324 79.2627 4.21488C79.2627 5.10294 78.794 5.80617 78.0728 6.12172H78.0818Z" fill="#303031"/>
<path d="M8.83465 4.21488C8.83465 1.92488 7.14435 0.216385 4.80046 0.216385H0V11.8242H1.90666V8.23141H4.91766L7.48241 11.8422H9.83982L6.8739 7.713C8.0774 7.0278 8.83014 5.7701 8.83014 4.21488H8.83465ZM5.73802 6.12172L4.61565 4.5665L3.04255 5.62134L3.54288 6.32457H1.90215V2.12322H4.79595C6.03551 2.12322 6.91898 2.99324 6.91898 4.21488C6.91898 5.10294 6.4502 5.80617 5.729 6.12172H5.73802Z" fill="#303031"/>
<path d="M108.274 8.65966L101.427 0.229904H99.5879V11.8377H101.495V3.32232L108.423 11.8377H110.18V0.229904H108.274V8.65966Z" fill="#303031"/>
<path d="M135.919 0.216385L130.523 11.8242H132.615L133.516 9.86777H140.26L141.161 11.8242H143.253L137.866 0.216385H135.914H135.919ZM134.404 7.95643L136.879 2.60106L139.372 7.95643H134.4H134.404Z" fill="#303031"/>
<path d="M89.8798 0.229904L84.4844 11.8377H86.5759L87.4773 9.88129H94.2205L95.122 11.8377H97.2135L91.8316 0.229904H89.8798ZM88.3653 7.96995L90.8399 2.61458L93.3326 7.96995H88.3608H88.3653Z" fill="#303031"/>
<path d="M49.2392 0.216385L43.8438 11.8242H45.9352L46.8367 9.86777H53.5799L54.4814 11.8242H56.5729L51.1909 0.216385H49.2392ZM47.7292 7.95643L50.2038 2.60106L52.6964 7.95643H47.7247H47.7292Z" fill="#303031"/>
<path d="M206.145 0.216385L200.75 11.8242H202.841L203.747 9.86777H210.491L211.392 11.8242H213.484L208.097 0.216385H206.145ZM204.635 7.95643L207.11 2.60106L209.603 7.95643H204.631H204.635Z" fill="#303031"/>
<path d="M173.312 0.0135193C169.895 0.0135193 167.326 2.57851 167.326 5.99549C167.326 9.41247 169.891 11.9775 173.312 11.9775C176.733 11.9775 179.294 9.41247 179.294 5.99549C179.294 2.57851 176.747 0.0135193 173.312 0.0135193ZM173.312 10.03C170.968 10.03 169.278 8.33508 169.278 5.99549C169.278 3.65589 170.973 1.96093 173.312 1.96093C175.651 1.96093 177.346 3.65139 177.346 5.99549C177.346 8.33959 175.651 10.03 173.312 10.03Z" fill="#303031"/>
<path d="M197.739 0.225388H195.832V11.8242H197.739V0.225388Z" fill="#303031"/>
<path d="M213.707 2.13222H218.142V11.8107H220.049V2.13222H224.466V0.225388H213.707V2.13222Z" fill="#303031"/>
<path d="M227.785 11.8242H235.159V9.92637H229.692V6.99624H235.159V5.09842H229.692V2.1187H235.159V0.225388H227.785V11.8242Z" fill="#303031"/>
<path d="M12.7188 11.8242H20.0975V9.97595H14.6254V6.99624H20.0975V5.09842H14.6254V2.1187H20.0975V0.225388H12.7188V11.8242Z" fill="#303031"/>
<path d="M242.628 5.10744C241.329 4.67919 240.333 4.39069 240.333 3.36289C240.333 2.59204 240.933 1.96093 242.096 1.96093C243.141 1.96093 243.89 2.4568 244.201 3.68746L245.995 2.95267C245.517 1.0864 244.061 0.00901794 242.127 0.00901794C240.058 0.00901794 238.381 1.22164 238.381 3.34486C238.381 5.63486 240.248 6.38768 241.785 6.87002C242.916 7.23066 243.903 7.51916 243.903 8.61458C243.903 9.52066 243.236 10.0346 242.159 10.0346C240.978 10.0346 240.261 9.42149 239.986 8.22239L238.26 9.04283C238.774 11.2156 240.518 11.9865 242.159 11.9865C244.178 11.9865 245.855 10.8415 245.855 8.60105C245.855 6.36063 244.367 5.69347 242.623 5.11195L242.628 5.10744Z" fill="#303031"/>
<path d="M160.465 1.96093C161.511 1.96093 162.259 2.4568 162.57 3.68746L164.364 2.95267C163.886 1.0864 162.43 0.00901794 160.496 0.00901794C158.427 0.00901794 156.751 1.22164 156.751 3.34486C156.751 5.63486 158.617 6.38768 160.154 6.87002C161.281 7.23066 162.272 7.51916 162.272 8.61458C162.272 9.52066 161.605 10.0346 160.528 10.0346C159.347 10.0346 158.63 9.42149 158.355 8.22239L156.629 9.04283C157.143 11.2156 158.887 11.9865 160.528 11.9865C162.547 11.9865 164.219 10.8415 164.219 8.60105C164.219 6.36063 162.732 5.69347 160.988 5.11195C159.689 4.6837 158.698 4.39519 158.698 3.3674C158.698 2.59655 159.297 1.96544 160.46 1.96544L160.465 1.96093Z" fill="#303031"/>
<path d="M149.658 1.96093C150.703 1.96093 151.452 2.4568 151.763 3.68746L153.561 2.95267C153.083 1.0864 151.627 0.00901794 149.694 0.00901794C147.625 0.00901794 145.948 1.22164 145.948 3.34486C145.948 5.63486 147.814 6.38768 149.351 6.87002C150.478 7.23066 151.47 7.51916 151.47 8.61458C151.47 9.52066 150.802 10.0346 149.725 10.0346C148.544 10.0346 147.827 9.42149 147.553 8.22239L145.826 9.04283C146.34 11.2156 148.084 11.9865 149.725 11.9865C151.744 11.9865 153.417 10.8415 153.417 8.60105C153.417 6.36063 151.929 5.69347 150.185 5.11195C148.887 4.6837 147.895 4.39519 147.895 3.3674C147.895 2.59655 148.495 1.96544 149.658 1.96544V1.96093Z" fill="#303031"/>
<path d="M26.7649 1.96093C27.8107 1.96093 28.5589 2.4568 28.8699 3.68746L30.6639 2.95267C30.1861 1.0864 28.7302 0.00901794 26.7965 0.00901794C24.7276 0.00901794 23.0508 1.22164 23.0508 3.34486C23.0508 5.63486 24.9124 6.38768 26.4539 6.87002C27.5808 7.23066 28.577 7.51916 28.577 8.61458C28.577 9.52066 27.9098 10.0346 26.8326 10.0346C25.6516 10.0346 24.9349 9.42149 24.66 8.22239L22.9336 9.04283C23.4474 11.2156 25.1918 11.9865 26.8326 11.9865C28.8519 11.9865 30.5242 10.8415 30.5242 8.60105C30.5242 6.36063 29.0367 5.69347 27.2923 5.11195C25.9942 4.6837 25.0025 4.39519 25.0025 3.3674C25.0025 2.59655 25.602 1.96544 26.7649 1.96544V1.96093Z" fill="#303031"/>
<path d="M188.097 1.95192C189.472 1.95192 190.621 2.53343 191.342 3.48911L191.401 3.57025L191.437 3.49812L192.348 1.67693C191.284 0.631104 189.796 0 188.097 0C184.667 0 182.098 2.5695 182.098 6C182.098 9.4305 184.671 12 188.097 12C189.035 12 189.914 11.8062 190.684 11.4591C190.684 11.4591 191.626 10.9947 192.19 10.4583L191.361 8.75883C189.738 9.94891 188.102 10.0436 188.102 10.0436C185.753 10.0436 184.054 8.3441 184.054 6C184.054 3.6559 185.753 1.95192 188.102 1.95192H188.097Z" fill="#303031"/>
</g>
<defs>
<clipPath id="clip0_1343_3136">
<rect width="246" height="12" fill="white"/>
</clipPath>
</defs>
</svg>
